<?xml version="1.0" encoding="utf-8"?>
<!-- Generator: Adobe Illustrator 24.2.1, SVG Export Plug-In . SVG Version: 6.00 Build 0)  -->
<svg version="1.1" id="Vrstva_1" xmlns="http://www.w3.org/2000/svg" xmlns:xlink="http://www.w3.org/1999/xlink" height="100" width="100" x="0px" y="0px"
	 viewBox="0 0 94 93" style="enable-background:new 0 0 94 93;" xml:space="preserve">
<style type="text/css">
	.st0{fill:#B0A835;}
</style>
<g>
	<g id="Group_2479_1_" transform="translate(214 267)">
		<g id="Rectangle_217_1_" transform="translate(615 3166)">
			<path class="st0" d="M-745-3339.5h-74c-5.8,0-10.5-4.7-10.5-10.5v-73c0-5.8,4.7-10.5,10.5-10.5h74c5.8,0,10.5,4.7,10.5,10.5v73
				C-734.5-3344.2-739.2-3339.5-745-3339.5z M-819-3432.5c-5.2,0-9.5,4.3-9.5,9.5v73c0,5.2,4.3,9.5,9.5,9.5h74
				c5.2,0,9.5-4.3,9.5-9.5v-73c0-5.2-4.3-9.5-9.5-9.5H-819z"/>
			<path class="st0" d="M-745-3340.5h-74c-5.2,0-9.5-4.3-9.5-9.5v-73c0-5.2,4.3-9.5,9.5-9.5h74c5.2,0,9.5,4.3,9.5,9.5v73
				C-735.5-3344.8-739.8-3340.5-745-3340.5z M-819-3431.5c-4.7,0-8.5,3.8-8.5,8.5v73c0,4.7,3.8,8.5,8.5,8.5h74
				c4.7,0,8.5-3.8,8.5-8.5v-73c0-4.7-3.8-8.5-8.5-8.5H-819z"/>
		</g>
	</g>
	<g>
		<path class="st0" d="M50.4,36.7c-7.9,11.4-7.8,10.8-7.8,11.3c-0.4,13.1-1.2,13.7,0,14.1c1.2,0.4,1.1-0.9,8.7-11.2
			c0.3-0.4,0.1,0.1,0.8-13.7C52.1,36.4,50.9,36,50.4,36.7z M49.6,50.2l-5.7,8.1l0.5-9.9l5.7-8.1L49.6,50.2z"/>
		<path class="st0" d="M60.8,35.5C60.8,35.5,60.8,35.5,60.8,35.5c-7.7-7.6-20-7.6-27.6,0c-6.1,6.1-5.7,13.9-5.7,13.8
			c0.1,0.2-0.4,7.6,5.7,13.7c5,5.9,14.7,6,13.8,5.8c0.2,0,7.6,0.4,13.8-5.7c3.5-3.5,5.7-8.4,5.7-13.8C66.4,48.4,67,41.7,60.8,35.5z
			 M60.1,61.2l-1.2-1.2c-0.8-0.8-2.1,0.4-1.3,1.3l1.2,1.2c-2.9,2.7-6.8,4.3-11,4.5c-0.1-0.8,0.4-2.6-0.9-2.6c-1.3,0-0.8,1.9-0.9,2.6
			c-4.2-0.2-8-1.9-11-4.5l1.2-1.2c0.8-0.8-0.4-2.1-1.3-1.3l-1.2,1.2c-2.7-2.9-4.3-6.8-4.5-11c0.8-0.1,2.6,0.4,2.6-0.9
			c0-0.5-1.9-0.8-2.6-0.9c0.2-4.2,1.9-8,4.5-11c0.6,0.5,1.6,2.2,2.5,1.2c0.9-0.9-0.8-1.9-1.2-2.5c2.9-2.7,6.8-4.3,11-4.5v1.7
			c0,1.2,1.8,1.2,1.8,0v-1.7c4.2,0.2,8,1.9,11,4.5c-0.5,0.6-2.2,1.6-1.2,2.5c0.9,0.9,1.9-0.8,2.5-1.2c2.7,2.9,4.3,6.8,4.5,11
			C63.9,48.5,62,48,62,49.3c0,1.3,1.9,0.8,2.6,0.9C64.5,54.4,62.8,58.2,60.1,61.2z"/>
		<path class="st0" d="M52.9,24.8c-0.2-1,0.7-3.8-1.8-4.7v-2.5c0-1.3-1.1-2.4-2.4-2.4h-3.4c-1.3,0-2.4,1.1-2.4,2.4v2.5
			c-2.5,0.9-1.6,3.7-1.8,4.7c-11.1,2.7-19.3,12.6-19.3,24.5c0,13.9,11.3,25.2,25.2,25.2c13.9,0,25.2-11.3,25.2-25.2
			C72.2,37.5,63.9,27.5,52.9,24.8z M45.3,17c2.4,0.2,4-0.5,4,0.6V20h-4.7C44.8,18.6,44.3,17,45.3,17z M43.8,21.8
			c5.2,0.3,7.3-0.6,7.3,0.9v1.8c-2.7-0.4-5.4-0.4-8.2,0C43,23.6,42.5,21.8,43.8,21.8z M47,72.7c-12.9,0-23.4-10.5-23.4-23.4
			S34.1,25.9,47,25.9c12.9,0,23.4,10.5,23.4,23.4S59.9,72.7,47,72.7z"/>
	</g>
</g>
</svg>
