<?xml version="1.0" encoding="utf-8"?>
<!-- Generator: Adobe Illustrator 24.2.1, SVG Export Plug-In . SVG Version: 6.00 Build 0)  -->
<svg version="1.1" id="Vrstva_1" xmlns="http://www.w3.org/2000/svg" xmlns:xlink="http://www.w3.org/1999/xlink" height="100" width="100" x="0px" y="0px"
	 viewBox="0 0 94 93" style="enable-background:new 0 0 94 93;" xml:space="preserve">
<style type="text/css">
	.st0{fill:#733E2E;}
</style>
<g>
	<g id="Group_2479_6_" transform="translate(214 267)">
		<g id="Rectangle_217_6_" transform="translate(615 3166)">
			<path class="st0" d="M-745-3339.5h-74c-5.8,0-10.5-4.7-10.5-10.5v-73c0-5.8,4.7-10.5,10.5-10.5h74c5.8,0,10.5,4.7,10.5,10.5v73
				C-734.5-3344.2-739.2-3339.5-745-3339.5z M-819-3432.5c-5.2,0-9.5,4.3-9.5,9.5v73c0,5.2,4.3,9.5,9.5,9.5h74
				c5.2,0,9.5-4.3,9.5-9.5v-73c0-5.2-4.3-9.5-9.5-9.5H-819z"/>
			<path class="st0" d="M-745-3340.5h-74c-5.2,0-9.5-4.3-9.5-9.5v-73c0-5.2,4.3-9.5,9.5-9.5h74c5.2,0,9.5,4.3,9.5,9.5v73
				C-735.5-3344.8-739.8-3340.5-745-3340.5z M-819-3431.5c-4.7,0-8.5,3.8-8.5,8.5v73c0,4.7,3.8,8.5,8.5,8.5h74
				c4.7,0,8.5-3.8,8.5-8.5v-73c0-4.7-3.8-8.5-8.5-8.5H-819z"/>
		</g>
	</g>
	<g>
		<path class="st0" d="M73.2,60.9c0-0.1,0-0.2,0-0.3l0,0c-0.1-5.4-0.1-14.7,0-30.4c0-0.6-0.5-1-1.1-0.9l-4.4,1
			c3.2-8.3-3.5-17.1-12.3-17.1c-8.8,0-15.4,8.7-12.3,17.1l-4.4-1c-0.4-0.1,0.6-0.2-17.3,3.9c-1.3,0.3-0.4-0.1-0.7,38.4
			c0,0.3,0.1,0.5,0.3,0.7c0.6,0.5,0.3,0.1,17.4-3.7c0.1,0,18,4.2,16.9,3.9c-0.3,0.1,16.9-3.9,17.1-3.9
			C73.3,68.3,73.3,68.3,73.2,60.9z M55.4,15c6.3,0,11.3,5.1,11.3,11.3c0,5.2-8,15.3-11.3,19.3c-3.4-4-11.3-14.1-11.3-19.3
			C44.1,20.1,49.2,15,55.4,15z M37.7,66.9l-15.1,3.5V67l5-1.1c0.5-0.1,0.7-0.6,0.6-1s-0.6-0.7-1-0.6l-4.6,1v-10h0V34.7l15.1-3.5
			v30.7L32.7,63c-0.5,0.1-0.7,0.6-0.6,1c0.1,0.4,0.4,0.7,0.8,0.7c0.1,0,0.1,0,0.2,0l4.5-1v0.1c0,0,0,0.1,0.1,0.1V66.9z M42.2,67.5
			h-2.7v-0.6l0,0v-3c0,0,0,0,0,0v-1.8c0,0,0,0,0,0V31.2l4.6,1.1c3.1,6.3,9.2,13.5,10.5,15v4.4l-3.3,4.3c-0.3,0.4-0.2,0.9,0.2,1.2
			c0.2,0.1,0.3,0.2,0.5,0.2c0.3,0,0.5-0.1,0.7-0.3l1.9-2.5v15.9L42.2,67.5z M56.3,70.4V53.2l0,0v-2.4c0,0,0,0,0,0v-3.6
			c1.3-1.5,7.4-8.7,10.5-15l4.6-1.1c0,0,0,26.1,0,26.2v0.3c-0.4-0.2-0.9,0-1.1,0.5c-0.2,0.4,0,0.9,0.5,1.1l0.5,0.2l0.1,0.6v6.9
			L56.3,70.4z"/>
		<path class="st0" d="M47.8,60.4l-1.7,2.2l-1.9-0.2c-0.5-0.1-0.9,0.3-0.9,0.7c-0.1,0.5,0.3,0.9,0.7,0.9l2.9,0.4l2.3-2.9
			c0.3-0.4,0.2-0.9-0.2-1.2C48.6,60,48.1,60.1,47.8,60.4z"/>
		<path class="st0" d="M66.2,55.5l-5.2-2.2c-0.4-0.2-0.9,0-1.1,0.5s0,0.9,0.5,1.1l5.2,2.2c0.1,0,0.2,0.1,0.3,0.1
			c0.3,0,0.7-0.2,0.8-0.5C66.8,56.2,66.6,55.7,66.2,55.5z"/>
		<path class="st0" d="M59.5,34.4c0.2,0,0.4-0.1,0.5-0.2c0.3-0.2,0.4-0.6,0.4-0.9l-0.8-4.5l3.3-3.2c0.3-0.2,0.3-0.6,0.2-1
			s-0.4-0.6-0.8-0.6l-4.5-0.7l-2-4.1c-0.2-0.3-0.5-0.5-0.8-0.5s-0.7,0.2-0.8,0.5l-2,4.1L47.6,24c-0.4,0.1-0.6,0.3-0.8,0.6
			s0,0.7,0.2,1l3.3,3.2l-0.8,4.5c-0.1,0.3,0.1,0.7,0.4,0.9c0.3,0.2,0.7,0.2,1,0.1l4-2.1l4,2.1C59.2,34.3,59.3,34.4,59.5,34.4z
			 M55.4,30.3c-0.1-0.1-0.3-0.1-0.4-0.1s-0.3,0-0.4,0.1l-2.8,1.5l0.5-3.1c0.1-0.3,0-0.6-0.3-0.8l-2.3-2.2l3.1-0.5
			c0.3,0,0.6-0.2,0.7-0.5l1.4-2.8l1.4,2.8c0.1,0.3,0.4,0.5,0.7,0.5l3.1,0.5L58,27.8c-0.2,0.2-0.3,0.5-0.3,0.8l0.5,3.1L55.4,30.3z"/>
	</g>
</g>
</svg>
