<?xml version="1.0" encoding="utf-8"?>
<!-- Generator: Adobe Illustrator 24.2.1, SVG Export Plug-In . SVG Version: 6.00 Build 0)  -->
<svg version="1.1" id="Vrstva_1" xmlns="http://www.w3.org/2000/svg" xmlns:xlink="http://www.w3.org/1999/xlink" height="100" width="100" x="0px" y="0px"
	 viewBox="0 0 94 93" style="enable-background:new 0 0 94 93;" xml:space="preserve">
<style type="text/css">
	.st0{fill:#733E2E;}
</style>
<g>
	<g id="Group_2479_2_" transform="translate(214 267)">
		<g id="Rectangle_217_2_" transform="translate(615 3166)">
			<path class="st0" d="M-745-3339.5h-74c-5.8,0-10.5-4.7-10.5-10.5v-73c0-5.8,4.7-10.5,10.5-10.5h74c5.8,0,10.5,4.7,10.5,10.5v73
				C-734.5-3344.2-739.2-3339.5-745-3339.5z M-819-3432.5c-5.2,0-9.5,4.3-9.5,9.5v73c0,5.2,4.3,9.5,9.5,9.5h74
				c5.2,0,9.5-4.3,9.5-9.5v-73c0-5.2-4.3-9.5-9.5-9.5H-819z"/>
			<path class="st0" d="M-745-3340.5h-74c-5.2,0-9.5-4.3-9.5-9.5v-73c0-5.2,4.3-9.5,9.5-9.5h74c5.2,0,9.5,4.3,9.5,9.5v73
				C-735.5-3344.8-739.8-3340.5-745-3340.5z M-819-3431.5c-4.7,0-8.5,3.8-8.5,8.5v73c0,4.7,3.8,8.5,8.5,8.5h74
				c4.7,0,8.5-3.8,8.5-8.5v-73c0-4.7-3.8-8.5-8.5-8.5H-819z"/>
		</g>
	</g>
	<g>
		<path class="st0" d="M64.8,64c0.5,0,0.9-0.4,0.9-0.9c0-0.5-0.4-0.9-0.9-0.9H29.4l0.9-3.9h34.8c0.4,0,0.8-0.3,0.9-0.7l5.1-28.9
			c0-0.3,0-0.5-0.2-0.7c-0.2-0.2-0.4-0.3-0.7-0.3H25.1l-1.9-10.5h-5.4c-0.5,0-0.9,0.4-0.9,0.9s0.4,0.9,0.9,0.9h3.9l6.9,38.7L27.2,64
			H64.8z M69.1,29.4l-4.8,27.1H30.3l-4.6-27.1H69.1z"/>
		<path class="st0" d="M35.3,52.8c0.1,0,0.1,0,0.2,0c0.5-0.1,0.8-0.6,0.7-1l-3-17.5c-0.1-0.5-0.5-0.8-1-0.7c-0.5,0.1-0.8,0.6-0.7,1
			l3,17.5C34.5,52.4,34.9,52.8,35.3,52.8z"/>
		<path class="st0" d="M41.3,52.8C41.3,52.8,41.4,52.7,41.3,52.8c0.6,0,0.9-0.5,0.9-1L40.7,34c0-0.5-0.5-0.9-1-0.8
			c-0.5,0-0.9,0.5-0.8,1l1.5,17.8C40.4,52.4,40.8,52.8,41.3,52.8z"/>
		<path class="st0" d="M59.5,52.7c0.1,0,0.1,0,0.2,0c0.4,0,0.8-0.3,0.9-0.8l3-17.5c0.1-0.5-0.2-1-0.7-1c-0.5-0.1-1,0.2-1,0.7
			l-3,17.5C58.6,52.2,59,52.7,59.5,52.7z"/>
		<path class="st0" d="M53.5,52.7C53.6,52.7,53.6,52.8,53.5,52.7c0.5,0,0.9-0.4,1-0.8L56,34.1c0-0.5-0.3-0.9-0.8-1
			c-0.5-0.1-0.9,0.3-1,0.8l-1.5,17.8C52.7,52.3,53,52.7,53.5,52.7z"/>
		<path class="st0" d="M47.4,52.5c0.5,0,0.9-0.4,0.9-0.9V34.1c0-0.5-0.4-0.9-0.9-0.9c-0.5,0-0.9,0.4-0.9,0.9v17.5
			C46.5,52.1,46.9,52.5,47.4,52.5z"/>
		<path class="st0" d="M33.4,64.7c-2.8,0-5.1,2.3-5.1,5.1c0,2.8,2.3,5.1,5.1,5.1s5.1-2.3,5.1-5.1C38.5,67,36.2,64.7,33.4,64.7z
			 M33.4,73.1c-1.8,0-3.3-1.5-3.3-3.3s1.5-3.3,3.3-3.3c1.8,0,3.3,1.5,3.3,3.3S35.2,73.1,33.4,73.1z"/>
		<path class="st0" d="M61.2,64.7c-2.8,0-5.1,2.3-5.1,5.1c0,2.8,2.3,5.1,5.1,5.1s5.1-2.3,5.1-5.1C66.3,67,64,64.7,61.2,64.7z
			 M61.2,73.1c-1.8,0-3.3-1.5-3.3-3.3s1.5-3.3,3.3-3.3c1.8,0,3.3,1.5,3.3,3.3S63,73.1,61.2,73.1z"/>
	</g>
</g>
</svg>
