<?xml version="1.0" encoding="utf-8"?>
<!-- Generator: Adobe Illustrator 24.2.1, SVG Export Plug-In . SVG Version: 6.00 Build 0)  -->
<svg version="1.1" id="Vrstva_1" xmlns="http://www.w3.org/2000/svg" xmlns:xlink="http://www.w3.org/1999/xlink" height="100" width="100" x="0px" y="0px"
	 viewBox="0 0 94 93" style="enable-background:new 0 0 94 93;" xml:space="preserve">
<style type="text/css">
	.st0{fill:#733E2E;}
</style>
<g>
	<g id="Group_2479" transform="translate(214 267)">
		<g id="Rectangle_217" transform="translate(615 3166)">
			<path class="st0" d="M-745-3339.5h-74c-5.8,0-10.5-4.7-10.5-10.5v-73c0-5.8,4.7-10.5,10.5-10.5h74c5.8,0,10.5,4.7,10.5,10.5v73
				C-734.5-3344.2-739.2-3339.5-745-3339.5z M-819-3432.5c-5.2,0-9.5,4.3-9.5,9.5v73c0,5.2,4.3,9.5,9.5,9.5h74
				c5.2,0,9.5-4.3,9.5-9.5v-73c0-5.2-4.3-9.5-9.5-9.5H-819z"/>
			<path class="st0" d="M-745-3340.5h-74c-5.2,0-9.5-4.3-9.5-9.5v-73c0-5.2,4.3-9.5,9.5-9.5h74c5.2,0,9.5,4.3,9.5,9.5v73
				C-735.5-3344.8-739.8-3340.5-745-3340.5z M-819-3431.5c-4.7,0-8.5,3.8-8.5,8.5v73c0,4.7,3.8,8.5,8.5,8.5h74
				c4.7,0,8.5-3.8,8.5-8.5v-73c0-4.7-3.8-8.5-8.5-8.5H-819z"/>
		</g>
	</g>
	<g>
		<path class="st0" d="M67.1,65c0.2,0.3,0.4,0.4,0.8,0.4c0.1,0,0.3,0,0.4-0.1c0.4-0.2,0.6-0.7,0.3-1.2L58.1,44.7
			c-0.2-0.4-0.7-0.6-1.2-0.3c-0.4,0.2-0.6,0.7-0.3,1.2L67.1,65z"/>
		<path class="st0" d="M37.3,53.7L44,66.4c0.2,0.3,0.4,0.5,0.8,0.5c0.1,0,0.3,0,0.4-0.1c0.4-0.2,0.6-0.7,0.4-1.1l-6.6-12.6
			c-0.2-0.4-0.7-0.6-1.1-0.4C37.3,52.8,37.1,53.3,37.3,53.7z"/>
		<path class="st0" d="M27.4,37h13c3.3,0,6-2.7,6-6c0-3.2-2.5-4.8-5.7-5c0.2-3.7-2.8-7-6.6-7c-3.8,0-6.9,3.3-6.6,7
			c-3.3,0-5.9,1.7-5.9,5C21.4,34.3,24.1,37,27.4,37z M28.2,27.8c0.6,0.1,1-0.4,0.9-1c-0.7-3.2,1.8-6.1,4.9-6.1c3,0,5.6,2.7,4.9,6.1
			c-0.1,0.6,0.4,1.1,0.9,1c2.5-0.4,4.9,0.6,4.9,3.3c0,2.4-2,4.3-4.3,4.3h-13c-2.4,0-4.3-2-4.3-4.3C23.1,28.5,25.4,27.3,28.2,27.8z"
			/>
		<path class="st0" d="M79.9,39.9c0-3-2.4-4.6-5.4-4.7c0.2-3.5-2.6-6.6-6.3-6.6c-3.6,0-6.5,3.1-6.3,6.6c-1.2,0-2.3,0.3-3.2,0.8
			c-0.8-1.6-1.4-2.6-1.4-2.6l0-0.1c-0.6-1.3-1.4-2.8-3.4-2.8c-1.2,0-2.3,0.6-2.8,1.7l-9.3,17.6l-2.8-5.2c-1.2-2.1-3.7-2.8-5-0.7
			c-0.6,0.9-2,3.4-3.4,6c-0.7-0.4-1.5-0.6-2.4-0.7c0-1.3-0.5-2.5-1.4-3.5c-1-1-2.3-1.6-3.7-1.6c-1.4,0-2.7,0.6-3.7,1.6
			c-0.9,0.9-1.4,2.2-1.4,3.5c-2.6,0.1-4.3,1.6-4.3,3.8c0,2.5,2.1,4.6,4.6,4.6h8l-7.7,14.6c-0.3,0.6,0.1,1.3,0.8,1.3
			c2,0,31.4,0,33.3,0c0.1,0,0.1,0,0.1,0c14.9,0,20.9,0,23,0c0.8,0,1,0,1.1,0c0.7,0,1.1-0.7,0.8-1.3L65.5,48.6c0,0-0.7-1.3-1.7-3.1
			h10.5C77.4,45.5,79.9,43,79.9,39.9z M18.6,56c-1.6,0-2.9-1.3-2.9-2.9c0-1.4,1-2.2,2.6-2.2c0.3,0,0.5,0,0.8,0.1c0,0,0.1,0,0.1,0
			c0.3,0,0.5-0.1,0.7-0.3c0.2-0.2,0.2-0.5,0.2-0.7c-0.2-1,0-2,0.7-2.8c0.6-0.8,1.6-1.3,2.6-1.3c1,0,2,0.5,2.6,1.2
			c0.7,0.8,0.9,1.8,0.7,2.9c0,0.2,0,0.5,0.2,0.7c0.2,0.2,0.4,0.3,0.6,0.3c0,0,0.1,0,0.1,0c0.2,0,0.5-0.1,0.7-0.1
			c0.7,0,1.3,0.2,1.7,0.5c-1,1.8-1.9,3.4-2.5,4.6H18.6z M21.2,71.8c14.4-26.7,13.6-27.1,15.1-27.1c1.6,0,0.8,0.5,15.1,27.1H21.2z
			 M75.7,71.8H53.5L43,51.7C53.3,32.7,52.5,32.3,54,32.3C55.6,32.3,54.3,31.8,75.7,71.8z M63,44c-1.1-2.2-2.5-4.7-3.6-6.8
			c0.9-0.5,2-0.6,3.3-0.4c0.5,0.1,1-0.4,0.9-0.9c-0.7-3,1.7-5.8,4.6-5.8c2.9,0,5.3,2.6,4.6,5.8c-0.1,0.5,0.3,1,0.9,0.9
			c2.3-0.4,4.6,0.6,4.6,3.1c0,2.3-1.8,4.1-4.1,4.1H63z"/>
	</g>
</g>
</svg>
